<svg width="56" height="56" viewBox="0 0 56 56" fill="none" xmlns="http://www.w3.org/2000/svg">
<path d="M28 56C43.464 56 56 43.464 56 28C56 12.536 43.464 0 28 0C12.536 0 0 12.536 0 28C0 43.464 12.536 56 28 56Z" fill="#5B98D1"/>
<path d="M27.9999 0C26.7621 0 25.5432 0.081375 24.3478 0.237016C38.086 2.02672 48.6955 13.7739 48.6955 28C48.6955 42.2261 38.0859 53.9733 24.3477 55.763C25.5432 55.9186 26.7621 56 27.9999 56C43.4639 56 55.9999 43.4639 55.9999 28C55.9999 12.5361 43.4639 0 27.9999 0Z" fill="#41719D"/>
<path d="M41.5741 15.7491L41.4682 15.4789C41.4651 15.4711 41.4592 15.4647 41.4516 15.4612L41.1889 15.3411C39.0265 14.3522 35.9763 14.1081 33.2776 14H30.2381C30.2038 14 30.1933 14.0467 30.2242 14.0616L36.4677 17.0756C36.5029 17.0925 36.4834 17.1453 36.4456 17.1353C33.6377 16.3969 30.8011 16.0232 28 16.0232C25.208 16.0232 22.3806 16.3947 19.5813 17.1283C19.5432 17.1383 19.5239 17.0849 19.5596 17.0683L26.0222 14.062C26.0535 14.0474 26.0433 14.0002 26.0087 14.0002H22.7225C20.0239 14.1083 16.9736 14.3523 14.8112 15.3413L14.5485 15.4614C14.5409 15.4649 14.5349 15.4712 14.5319 15.479L14.4261 15.7493C12.2131 21.3955 11.5843 30.9808 12.2549 36.9857L12.29 37.3006L12.5388 37.4949C15.9959 40.1942 20.6185 41.582 23.5265 41.9503L23.9025 41.9979C24.0248 42.0134 24.1415 41.9423 24.1847 41.8261L26.0774 36.7344C26.1365 36.5757 26.036 36.4024 25.8697 36.3761L25.289 36.2842C23.2638 35.9638 20.3944 35.1145 17.9695 32.9003C17.9178 32.853 17.9677 32.768 18.0332 32.7925C18.2302 32.8662 18.4475 32.9517 18.6713 33.0397C19.2196 33.2554 19.7867 33.4784 20.1567 33.5669C22.757 34.1895 25.394 34.5052 27.9999 34.5052V34.4585H28.0053L28.0056 34.5052C30.6062 34.5052 33.2431 34.1895 35.8432 33.5669C36.2134 33.4783 36.7804 33.2554 37.3288 33.0396C37.5524 32.9516 37.7697 32.8661 37.9666 32.7925C38.0321 32.768 38.082 32.8531 38.0302 32.9003C35.6135 35.1048 32.7406 35.9519 30.7108 36.272L30.1302 36.3635C29.964 36.3898 29.8633 36.5629 29.9223 36.7216L31.8153 41.8259C31.8584 41.9421 31.9753 42.0133 32.0975 41.9978L32.4739 41.9502C35.3817 41.5819 40.004 40.1941 43.4611 37.4948L43.7099 37.3005L43.7451 36.9856C44.4158 30.9808 43.7869 21.3954 41.5741 15.7491ZM21.8225 29.6115C19.4717 29.8226 17.5104 27.8479 17.7198 25.4808C17.8803 23.6663 19.3314 22.2051 21.1335 22.0433C23.4843 21.8322 25.4456 23.8068 25.2362 26.1739C25.0756 27.9884 23.6245 29.4497 21.8225 29.6115ZM34.8668 29.6115C32.516 29.8226 30.5547 27.8479 30.7641 25.4808C30.9246 23.6663 32.3757 22.2051 34.1778 22.0433C36.5286 21.8322 38.4899 23.8068 38.2805 26.1739C38.1199 27.9884 36.6689 29.4497 34.8668 29.6115Z" fill="white"/>
</svg>
