<svg width="56" height="56" viewBox="0 0 56 56" fill="none" xmlns="http://www.w3.org/2000/svg">
<g clip-path="url(#clip0_112_183)">
<path d="M28 56C43.464 56 56 43.464 56 28C56 12.536 43.464 0 28 0C12.536 0 0 12.536 0 28C0 43.464 12.536 56 28 56Z" fill="#5B98D1"/>
<path d="M27.9999 0C26.7621 0 25.5432 0.081375 24.3478 0.237016C38.0861 2.02672 48.6956 13.7739 48.6956 28C48.6956 42.2261 38.086 53.9733 24.3477 55.763C25.5432 55.9186 26.7621 56 27.9999 56C43.4639 56 56 43.4639 56 28C56 12.5361 43.4639 0 27.9999 0Z" fill="#41719D"/>
<path d="M23.1608 42C20.8153 42 18.5167 41.59 16.329 40.7816L14.161 39.9805C13.9239 39.8929 13.9567 39.5574 14.2066 39.5148L16.4912 39.1251C18.6078 38.7639 20.6094 37.9266 22.3248 36.6902C22.5058 36.5597 22.4329 36.2853 22.2099 36.2534C20.2123 35.9687 18.4189 34.795 17.4126 33.0729L16.8997 32.1951C16.8077 32.0378 16.9191 31.8416 17.1049 31.833L18.1425 31.7847L18.153 31.7841C18.4136 31.7716 18.4758 31.4269 18.2389 31.3204C16.3381 30.4655 14.9611 28.7487 14.6073 26.6929L14.4492 25.774C14.4198 25.6031 14.5789 25.4582 14.7525 25.4977L15.686 25.7102C16.1829 25.8232 16.6966 25.8807 17.2129 25.8807C17.2189 25.8807 17.225 25.8807 17.2312 25.8807C15.2404 24.6418 14.0578 22.548 14.0578 20.2434C14.0578 19.6701 14.1318 19.1031 14.2779 18.558L14.5571 17.5164C14.6055 17.3355 14.8376 17.2736 14.9744 17.405L15.7622 18.1618C17.8427 20.1606 20.3975 21.6993 23.1507 22.6118C23.8797 22.8363 26.0905 23.4457 26.8559 23.4487L26.8748 23.4489C26.8748 23.4489 27.0983 23.4567 27.2417 23.4632C27.2408 23.424 27.2401 23.3848 27.2401 23.3456C27.2401 19.2952 30.6316 16 34.8004 16C36.791 16 38.6598 16.7409 40.0805 18.0899C40.1367 18.1432 40.2148 18.1692 40.2924 18.1578C41.0229 18.0501 41.7498 17.8802 42.4488 17.6527L44.7796 16.894C45.0238 16.8145 45.2169 17.1026 45.0435 17.2875L43.3875 19.0524C43.1669 19.2876 42.9298 19.5064 42.678 19.7077C42.4783 19.8672 42.6268 20.1807 42.8807 20.1344C43.1064 20.0933 43.3308 20.0468 43.5528 19.995L45.6909 19.4966C45.9341 19.44 46.1025 19.727 45.9284 19.9015L44.3978 21.4351C43.7781 22.056 43.0911 22.6258 42.3554 23.129L42.3566 23.164C42.3588 23.2243 42.3607 23.2847 42.3607 23.3456V23.4188C42.3175 33.666 33.7044 42 23.1608 42Z" fill="#FCFCFC"/>
</g>
<defs>
<clipPath id="clip0_112_183">
<rect width="56" height="56" fill="white"/>
</clipPath>
</defs>
</svg>
